<?xml version="1.0" standalone="no"?><!DOCTYPE svg PUBLIC "-//W3C//DTD SVG 1.1//EN" "http://www.w3.org/Graphics/SVG/1.1/DTD/svg11.dtd"><svg t="1489231501930" class="icon" style="" viewBox="0 0 1024 1024" version="1.1" xmlns="http://www.w3.org/2000/svg" p-id="1664" xmlns:xlink="http://www.w3.org/1999/xlink" width="200" height="200"><defs><style type="text/css"></style></defs><path d="M971.363683 144.014998 52.636309 144.014998c-29.058826 0-52.615335 23.529903-52.615335 52.55496l0 630.795617c0 29.025057 23.556509 52.55496 52.615335 52.55496l918.727375 0c29.058826 0 52.615335-23.529903 52.615335-52.55496L1023.979018 196.569958C1023.979018 167.544901 1000.42251 144.014998 971.363683 144.014998zM479.47779 712.164832c-1.074472 6.439666-2.685155 11.266601-4.830005 14.485923-1.431605 2.146896-5.633301 4.291746-12.611226 6.439666-6.974855 2.14485-15.649422 4.113691-26.021653 5.90243-10.374278 1.787716-21.819958 3.488451-34.340109 5.096065-12.519128 1.609661-25.127284 2.951215-37.82856 4.025687-12.69923 1.073448-24.949228 1.966795-36.754089 2.682086s-22.176069 1.072425-31.120788 1.072425c-8.943696 0-19.225877-0.356111-30.851659-1.072425-11.625782-0.715291-23.698748-1.609661-36.2189-2.682086-12.519128-1.075495-24.859177-2.234901-37.022195-3.488451-12.160971-1.25048-23.340591-2.682086-33.534767-4.291746-10.194176-1.609661-18.780739-3.219321-25.755594-4.830005s-11.357675-3.12927-13.145391-4.560876c-2.860141-2.50403-5.186116-10.015098-6.973832-22.535249-1.791809-12.517081-1.25355-28.616758 1.609661-48.288796 1.787716-11.447726 6.349615-20.032242 13.680581-25.755594 7.334036-5.723352 16.008602-10.372232 26.024723-13.948687 10.016121-3.578502 20.298302-6.707772 30.851659-9.390881s19.942191-6.705726 28.169573-12.072967c6.439666-4.291746 11.357675-8.227382 14.755052-11.80486 3.3984-3.576455 5.90243-7.15291 7.512091-10.731412 1.609661-3.576455 2.412956-7.330966 2.412956-11.267625 0-3.935636-0.179079-8.40646-0.535189-13.413498-0.715291-7.154957-3.219321-12.788258-7.512091-16.902972-4.291746-4.113691-8.943696-8.137331-13.951757-12.072967-2.50403-2.14485-4.738931-5.186116-6.705726-9.119705-1.968841-3.935636-3.666506-7.871271-5.098111-11.80486-1.428535-4.294816-2.860141-9.121751-4.291746-14.488992-2.14485-0.715291-4.291746-1.787716-6.439666-3.219321-1.787716-1.428535-3.664459-3.576455-5.633301-6.437619-1.966795-2.863211-3.844561-6.795776-5.633301-11.803837-1.787716-5.008061-2.50403-9.748015-2.146896-14.219863 0.35918-4.470825 1.25355-8.137331 2.685155-10.997472 1.428535-3.579525 3.3984-6.7968 5.90243-9.660011-0.35918-11.444657 0.178055-23.070438 1.609661-34.875299 1.429559-10.016121 3.664459-20.479427 6.705726-31.388894 3.041266-10.909467 7.78122-21.016663 14.219863-30.316469 5.721305-8.584516 12.160971-15.559371 19.315928-20.926612 7.15291-5.364171 14.486946-9.568936 21.998013-12.608156 7.512091-3.041266 15.024182-5.098111 22.536272-6.170536 7.509021-1.072425 14.665001-1.609661 21.460778-1.609661 18.243503 0 34.519188 3.75451 48.827055 11.266601 14.307867 7.512091 24.861224 15.561417 31.658024 24.145933 7.869225 9.660011 13.682627 20.479427 17.438161 32.461319 3.756557 11.984962 6.52767 23.161512 8.318456 33.536814 1.787716 12.159948 2.50403 24.323988 2.14485 36.484959 1.787716 1.431605 3.3984 3.3984 4.830005 5.90243 1.072425 2.146896 2.056845 4.920056 2.951215 8.318456 0.893346 3.3984 0.984421 7.600095 0.26913 12.608156-0.716314 6.439666-2.14792 11.625782-4.291746 15.561417-2.146896 3.932566-4.294816 6.974855-6.439666 9.121751-2.50403 2.50096-5.364171 4.111644-8.584516 4.826935-1.431605 5.367241-2.863211 10.194176-4.29277 14.488992-1.431605 3.933589-3.219321 7.869225-5.367241 11.80486-2.14485 3.932566-4.470825 6.7968-6.974855 8.584516-2.860141 2.50403-5.455245 4.64888-7.78122 6.436596-2.324952 1.790786-4.381797 3.666506-6.170536 5.636371-1.787716 1.965771-3.307326 4.201695-4.560876 6.705726-1.251503 2.505054-2.234901 5.545296-2.951215 9.121751-0.713244 4.65195-0.981351 9.390881-0.803295 14.217816 0.179079 4.828982 1.340531 9.567913 3.488451 14.219863 2.14485 4.64888 5.633301 9.121751 10.462283 13.413498 4.826935 4.291746 11.534707 8.04728 20.120246 11.266601 7.512091 3.220345 15.827477 5.992481 24.949228 8.318456 9.121751 2.322905 17.884322 5.096065 26.290783 8.315386 8.40646 3.219321 15.918551 7.334036 22.535249 12.341073 6.617721 5.008061 11.357675 11.44568 14.220886 19.315928 1.428535 5.008061 2.591011 11.088546 3.485381 18.241456 0.89437 7.154957 1.340531 14.397918 1.340531 21.731954C481.084381 698.841386 480.550215 705.725166 479.47779 712.164832zM888.447229 672.473855 599.600635 672.473855c-13.011338 0-23.558555-10.751878-23.558555-24.015973s10.547217-24.015973 23.558555-24.015973l288.847617 0c13.011338 0 23.558555 10.751878 23.558555 24.015973S901.458567 672.473855 888.447229 672.473855zM888.447229 528.607236 599.600635 528.607236c-13.011338 0-23.558555-10.751878-23.558555-24.015973s10.547217-24.015973 23.558555-24.015973l288.847617 0c13.011338 0 23.558555 10.751878 23.558555 24.015973S901.458567 528.607236 888.447229 528.607236zM888.447229 383.980301 599.600635 383.980301c-13.011338 0-23.558555-10.751878-23.558555-24.015973s10.547217-24.015973 23.558555-24.015973l288.847617 0c13.011338 0 23.558555 10.751878 23.558555 24.015973S901.458567 383.980301 888.447229 383.980301z" p-id="1665" fill="#515151"></path></svg>